<?xml version="1.0" standalone="no"?>
<!DOCTYPE svg PUBLIC "-//W3C//DTD SVG 20010904//EN"
 "http://www.w3.org/TR/2001/REC-SVG-20010904/DTD/svg10.dtd">
<svg version="1.0" xmlns="http://www.w3.org/2000/svg"
 width="350.000000pt" height="347.000000pt" viewBox="0 0 350.000000 347.000000"
 preserveAspectRatio="xMidYMid meet">

<g transform="translate(0.000000,347.000000) scale(0.100000,-0.100000)"
fill="#000000" stroke="none">
<path d="M1637 3344 c-11 -3 -16 -12 -13 -20 6 -16 -3 -18 -117 -35 -44 -6
-91 -8 -105 -5 -22 5 -24 4 -12 -5 13 -9 12 -10 -3 -5 -10 3 -21 6 -23 6 -3 0
-2 5 2 11 19 32 -196 -39 -351 -116 -140 -69 -260 -153 -373 -260 -147 -139
-295 -347 -227 -321 7 2 -6 -30 -30 -72 -23 -42 -58 -112 -78 -154 -39 -83
-57 -103 -57 -66 -1 66 -83 -227 -101 -359 -16 -128 -6 -381 20 -505 55 -253
173 -501 332 -693 450 -547 1174 -736 1824 -476 201 81 368 194 535 361 232
231 370 482 442 802 20 90 23 130 23 313 0 183 -3 223 -23 313 -34 152 -66
243 -132 377 -126 257 -295 457 -520 616 -93 66 -264 159 -290 159 -13 0 -13
-1 0 -10 8 -5 11 -10 5 -10 -5 0 -3 -5 5 -11 17 -12 17 -12 -95 28 -74 26 -90
37 -90 56 0 15 -73 41 -171 62 -77 16 -341 29 -377 19z m373 -78 c321 -67 583
-208 816 -440 160 -161 269 -324 347 -521 46 -116 64 -181 92 -335 13 -69 24
-116 25 -105 4 52 29 -58 29 -134 1 -72 -1 -82 -13 -71 -8 6 -16 21 -18 33 -2
12 -8 -7 -12 -43 -20 -165 -49 -298 -96 -434 -31 -94 -35 -110 -21 -88 7 11 9
11 14 -1 11 -28 -95 -223 -115 -211 -5 3 -7 13 -3 23 8 21 3 15 -80 -94 -90
-118 -230 -254 -346 -338 -118 -84 -314 -184 -447 -226 -56 -18 -105 -37 -108
-42 -3 -5 2 -6 10 -3 27 10 18 -5 -11 -20 -67 -33 -275 -52 -346 -31 -42 13
-42 13 -12 17 17 3 0 6 -38 7 -198 4 -476 80 -657 179 -479 263 -773 704 -821
1234 -19 199 8 415 76 623 26 79 129 282 187 370 109 164 335 371 523 479 155
89 379 164 553 186 101 13 385 4 472 -14z m1043 -2359 c3 -8 -1 -14 -8 -14 -7
0 -11 6 -8 14 3 7 6 13 8 13 2 0 5 -6 8 -13z"/>
<path d="M1708 3200 c-5 -34 -2 -36 21 -16 37 34 44 25 42 -59 -1 -57 -6 -83
-16 -91 -25 -19 -17 -24 40 -24 30 0 55 5 55 10 0 6 -6 10 -13 10 -10 0 -11
18 -5 78 3 42 7 78 7 80 3 10 31 -1 31 -13 0 -8 7 -15 15 -15 10 0 15 10 15
29 0 27 -3 29 -52 35 -29 3 -72 6 -94 6 -39 0 -42 -2 -46 -30z"/>
<path d="M1951 3202 c10 -16 10 -33 -1 -92 -8 -40 -20 -79 -28 -87 -8 -7 -12
-16 -9 -19 3 -3 40 -13 83 -21 73 -15 78 -15 91 2 26 37 11 74 -17 40 -7 -8
-28 -15 -46 -15 -32 0 -34 2 -28 28 10 40 24 51 30 24 9 -34 20 -27 32 20 12
47 -1 78 -19 46 -6 -10 -16 -18 -24 -18 -11 0 -11 5 1 30 9 17 19 30 24 30 22
0 40 -14 40 -31 0 -29 29 -23 36 7 8 33 -2 40 -83 54 -34 6 -70 13 -79 17 -14
5 -14 3 -3 -15z"/>
<path d="M1403 3189 c-33 -10 -45 -29 -19 -29 16 0 53 -141 41 -160 -16 -26
-53 -7 -126 66 l-77 76 -7 -103 c-4 -57 -12 -109 -17 -116 -17 -21 0 -33 32
-21 31 10 42 38 15 38 -8 0 -15 4 -15 10 0 13 34 30 60 30 17 0 20 -4 15 -20
-8 -25 11 -26 62 -5 19 8 45 15 57 15 44 0 129 32 152 57 16 18 24 38 24 62 0
42 -3 47 -48 84 -36 29 -85 34 -149 16z m110 -36 c35 -40 26 -133 -14 -141
-13 -2 -18 10 -23 62 -4 36 -9 73 -12 81 -9 21 29 20 49 -2z m-243 -132 c0 -9
-24 -21 -42 -21 -6 0 -6 6 2 15 14 16 40 20 40 6z"/>
<path d="M2179 3115 c-85 -46 -43 -205 54 -205 44 0 67 8 67 24 0 8 -16 12
-46 12 -59 -1 -70 14 -54 72 16 61 43 85 83 76 38 -8 49 -21 42 -51 -3 -13 -1
-23 4 -23 13 0 29 22 37 54 6 25 4 27 -12 22 -11 -3 -32 3 -49 14 -35 23 -89
25 -126 5z"/>
<path d="M2407 3051 c6 -24 -50 -135 -79 -156 -23 -16 -23 -16 -4 -30 27 -21
49 -19 42 3 -6 19 48 130 56 116 9 -14 32 -157 29 -178 -5 -37 23 -9 64 64 24
41 50 76 59 78 21 5 21 28 -1 35 -10 2 -25 8 -34 11 -13 6 -16 2 -12 -18 5
-24 -23 -86 -39 -86 -5 0 -6 11 -2 25 3 14 3 46 -1 70 -5 40 -11 48 -45 65
-36 18 -38 19 -33 1z"/>
<path d="M963 3012 c-52 -26 -70 -52 -35 -52 11 0 31 -25 55 -67 l38 -68 -22
-18 c-12 -10 -25 -16 -29 -15 -5 2 -28 30 -53 63 -31 41 -42 64 -36 72 22 26
-15 23 -49 -4 -42 -34 -51 -53 -25 -54 24 -1 115 -113 107 -133 -10 -27 20
-18 62 17 21 19 63 47 92 62 68 37 92 67 92 116 0 31 -7 46 -35 74 -44 44 -87
46 -162 7z m97 -32 c45 -32 57 -102 21 -124 -8 -6 -81 116 -81 136 0 15 32 8
60 -12z"/>
<path d="M1625 2970 c-3 -5 1 -10 10 -10 9 0 14 -4 11 -9 -3 -5 -34 -12 -68
-16 -35 -3 -72 -9 -83 -11 -17 -4 -17 -2 5 17 21 19 22 21 5 16 -11 -3 -38 -8
-60 -12 -123 -21 -320 -112 -445 -206 -90 -68 -202 -184 -257 -265 -53 -79
-58 -88 -45 -80 5 3 12 0 15 -6 5 -14 -77 -174 -101 -198 -14 -13 -15 -13 -6
0 10 14 18 67 9 58 -2 -2 -18 -42 -35 -88 -140 -378 -74 -814 175 -1144 78
-104 237 -252 332 -309 478 -287 1050 -237 1464 129 92 82 131 127 206 237
112 167 182 360 204 567 23 216 -28 462 -141 678 -81 157 -247 345 -387 440
-79 53 -234 132 -259 131 -19 0 -19 -1 0 -8 15 -6 16 -10 7 -15 -17 -11 -88
22 -94 43 -5 20 -79 46 -172 61 -79 13 -282 13 -290 0z m258 -51 c362 -55 677
-268 833 -562 45 -85 58 -128 38 -120 -8 3 -14 0 -14 -7 0 -6 -5 -8 -10 -5 -6
4 -17 1 -26 -5 -12 -11 -12 -9 1 16 27 52 12 77 -30 50 -21 -14 -73 -16 -393
-16 l-368 0 -39 -82 c-22 -45 -55 -99 -74 -120 l-33 -38 -143 0 -143 0 -109
-216 c-112 -224 -142 -268 -186 -280 -62 -15 -71 24 -12 52 29 13 47 44 146
240 63 124 125 236 138 250 17 18 20 24 9 24 -9 0 -21 7 -28 15 -10 12 -6 27
19 81 17 36 31 72 31 80 0 16 -21 19 -36 4 -5 -5 -74 -11 -153 -12 l-144 -3
-44 -85 c-96 -183 -361 -717 -374 -752 -7 -20 -16 -35 -21 -32 -11 7 -10 -57
1 -75 6 -8 32 -16 66 -19 47 -4 58 -9 67 -28 16 -34 48 -42 223 -53 269 -18
341 -16 402 15 29 15 50 30 48 34 -7 11 42 30 73 29 40 -1 57 -11 56 -34 -2
-63 49 -88 183 -89 l102 -1 40 40 c22 22 40 44 41 48 0 5 12 29 27 55 16 26
28 49 28 52 1 3 10 23 22 45 83 161 179 346 195 378 10 21 30 43 43 49 14 6
25 15 25 20 0 12 38 10 115 -8 113 -27 135 -39 135 -74 0 -17 -5 -41 -11 -52
-11 -21 -12 -21 -26 -2 -14 18 -14 18 -12 -6 4 -48 -1 -70 -16 -70 -8 0 -15
-7 -15 -15 0 -9 -7 -30 -16 -47 -13 -25 -14 -32 -2 -39 10 -7 11 -11 0 -17 -7
-5 -17 -22 -22 -38 -7 -25 -8 -26 -9 -6 -1 14 -5 21 -12 16 -6 -3 -9 -14 -6
-25 3 -10 -19 -65 -49 -124 -30 -58 -54 -117 -54 -130 0 -33 -10 -55 -25 -55
-7 0 -16 -7 -19 -16 -3 -8 -2 -12 4 -9 6 3 10 2 10 -4 0 -5 -4 -12 -9 -15 -4
-3 -6 -17 -3 -31 5 -26 -6 -33 -25 -14 -8 8 -13 7 -18 -2 -5 -8 -4 -10 3 -5
17 11 15 -46 -2 -70 -14 -18 -15 -18 -21 -2 -4 10 -11 15 -17 12 -5 -3 -4 -12
3 -20 6 -8 9 -17 5 -21 -3 -3 -6 -1 -6 5 0 7 -4 12 -10 12 -6 0 -6 -9 0 -26
14 -35 12 -54 -3 -54 -20 0 -51 -71 -36 -81 9 -5 8 -11 -4 -24 -10 -9 -17 -27
-17 -41 0 -17 -6 -24 -20 -24 -24 0 -70 -21 -70 -32 0 -11 17 -10 22 1 5 13
68 25 68 12 0 -14 -31 -30 -55 -28 -11 1 -19 -3 -18 -9 3 -15 -123 -49 -232
-65 -120 -17 -309 -6 -430 26 -319 83 -609 309 -749 584 -90 177 -126 325
-126 521 0 587 432 1085 1015 1169 87 13 226 13 308 0z m322 -59 c-3 -5 2 -10
11 -10 10 0 15 -3 11 -6 -9 -9 -48 6 -42 17 4 5 11 9 16 9 6 0 7 -4 4 -10z
m-285 -829 c0 -5 -76 -159 -169 -342 -132 -259 -175 -336 -196 -347 -15 -7
-29 -11 -32 -9 -2 3 56 126 130 274 148 296 157 316 131 306 -13 -5 -15 -2 -9
18 17 54 46 101 61 95 8 -3 24 -1 36 4 30 12 48 12 48 1z m1030 -295 c0 -69
-1 -70 -15 -42 -8 15 -15 53 -15 83 0 48 2 54 15 43 11 -9 15 -33 15 -84z
m-127 -443 c-5 -28 -3 -34 7 -28 9 6 10 2 5 -16 -11 -36 -52 -111 -75 -139
l-21 -25 16 34 c16 33 16 33 -3 19 -11 -7 -40 -41 -65 -73 -25 -33 -87 -101
-139 -150 -142 -137 -273 -217 -468 -285 -77 -27 -104 -41 -102 -52 1 -9 -7
-18 -20 -22 -30 -9 -207 -18 -190 -10 29 14 6 22 -80 28 -160 12 -169 22 -16
18 221 -7 394 30 578 122 231 116 433 320 540 546 19 38 35 70 36 70 2 0 0
-16 -3 -37z m-1356 -679 c-3 -3 -12 -4 -19 -1 -8 3 -5 6 6 6 11 1 17 -2 13 -5z
m46 -11 c-7 -2 -19 -2 -25 0 -7 3 -2 5 12 5 14 0 19 -2 13 -5z"/>
<path d="M2145 777 c-4 -10 -5 -21 -1 -24 10 -10 18 4 13 24 -4 17 -4 17 -12
0z"/>
<path d="M2604 2890 c-12 -4 -31 -21 -44 -37 -19 -24 -21 -36 -17 -82 7 -62
34 -98 82 -107 66 -12 145 56 145 124 0 28 -47 82 -87 98 -37 16 -49 16 -79 4z
m114 -68 c3 -17 -10 -37 -46 -73 -53 -53 -59 -56 -86 -36 -18 13 -17 15 3 54
11 23 33 51 48 63 35 27 77 24 81 -8z"/>
<path d="M734 2837 c-6 -7 -21 -20 -33 -29 -15 -13 -21 -29 -21 -58 0 -54 26
-67 110 -53 59 9 61 9 58 -11 -3 -18 -10 -21 -50 -21 -47 0 -47 0 -32 -23 9
-13 14 -25 12 -27 -5 -5 -31 -7 -72 -6 -34 1 -37 3 -25 17 11 14 10 19 -10 35
-43 35 -76 25 -126 -38 -50 -65 -53 -73 -26 -73 11 0 42 -18 70 -40 28 -22 55
-40 61 -40 7 0 9 -8 5 -20 -10 -32 11 -23 44 19 37 47 38 55 7 47 -16 -4 -31
1 -47 15 l-24 20 56 -4 55 -5 71 66 c92 88 100 122 34 156 -24 13 -35 13 -78
2 -59 -16 -87 -7 -53 17 12 8 30 13 40 10 11 -3 27 -2 37 1 15 6 13 10 -12 31
-35 28 -36 28 -51 12z m-116 -213 c24 -7 29 -33 11 -51 -9 -9 -21 -5 -46 15
-31 23 -33 27 -17 33 25 10 25 10 52 3z"/>
<path d="M2826 2736 c5 -14 -74 -90 -113 -109 -34 -15 -34 -32 1 -69 18 -18
40 -46 49 -61 18 -27 18 -28 47 -10 37 22 39 42 4 35 -25 -5 -74 14 -74 29 0
5 27 31 61 59 43 36 66 49 80 45 28 -9 23 11 -13 56 -31 39 -52 51 -42 25z"/>
<path d="M2868 2501 c-27 -24 -33 -36 -32 -68 3 -89 55 -143 127 -129 54 10
88 45 94 97 5 43 3 49 -34 87 -34 36 -46 42 -81 42 -32 0 -49 -7 -74 -29z
m159 -47 c7 -21 -47 -72 -93 -90 -41 -15 -47 -16 -61 -2 -13 14 -13 19 -1 42
22 41 67 67 112 64 22 -2 41 -8 43 -14z"/>
<path d="M448 2468 c-9 -13 -27 -47 -42 -76 -25 -49 -26 -53 -8 -50 26 4 162
-62 162 -79 0 -29 18 -10 53 56 43 81 44 87 16 102 -19 9 -20 8 -14 -10 5 -18
-18 -81 -31 -81 -3 0 -19 7 -36 16 -27 14 -29 18 -15 26 10 5 21 7 26 3 5 -3
12 -2 15 3 3 5 -16 19 -41 31 -33 16 -43 18 -34 7 7 -9 11 -22 8 -30 -5 -13
-10 -13 -39 1 -18 9 -34 17 -36 19 -8 6 44 48 62 50 12 1 23 3 26 3 5 1 -49
31 -55 31 -1 0 -9 -10 -17 -22z"/>
<path d="M352 2280 c-10 -28 -9 -30 12 -30 13 0 30 -7 37 -16 7 -9 23 -20 36
-25 47 -18 25 -31 -47 -27 l-70 3 -12 -35 c-12 -37 -10 -48 7 -41 6 2 54 7
108 11 54 4 103 12 108 17 5 5 -11 24 -41 47 -28 21 -68 58 -89 83 l-39 43
-10 -30z"/>
<path d="M3002 2285 c-38 -17 -66 -71 -56 -110 8 -32 15 -31 39 8 24 38 79 56
123 41 32 -11 43 -62 18 -84 -15 -12 -22 -40 -11 -40 3 0 22 7 42 15 28 12 34
18 25 27 -7 7 -12 26 -12 43 0 48 -73 116 -123 115 -7 -1 -27 -7 -45 -15z"/>
<path d="M3012 2132 c-29 -14 -34 -14 -42 -2 -13 20 -12 10 1 -29 6 -17 16
-31 22 -32 20 -2 82 3 85 6 5 5 -21 75 -28 74 -3 0 -20 -8 -38 -17z"/>
<path d="M3175 2052 c-6 -5 -42 -15 -82 -22 -39 -7 -76 -16 -82 -19 -6 -4 -8
-22 -4 -44 5 -34 7 -36 22 -23 21 19 132 39 167 30 26 -7 27 -6 21 26 -4 18
-7 39 -7 46 0 16 -21 19 -35 6z"/>
<path d="M280 2033 c0 -10 -3 -29 -7 -42 -5 -21 -3 -23 15 -19 28 8 165 -20
174 -35 11 -18 25 3 33 50 l7 42 -35 -6 c-29 -4 -111 7 -169 23 -13 4 -18 0
-18 -13z"/>
<path d="M260 1899 c0 -26 3 -30 18 -24 29 12 94 26 99 21 3 -2 -25 -23 -61
-46 -62 -39 -66 -44 -66 -78 l0 -37 83 3 c70 3 87 1 101 -14 15 -14 19 -15 27
-3 11 17 12 59 1 59 -4 0 -13 -5 -19 -11 -13 -13 -123 -2 -123 12 0 5 6 9 13
9 16 0 147 88 147 99 0 5 -39 12 -87 16 -49 3 -96 10 -105 15 -26 15 -28 13
-28 -21z"/>
<path d="M3075 1914 c-43 -23 -55 -42 -55 -91 0 -44 23 -103 40 -103 19 0 19
18 0 35 -14 13 -18 25 -14 44 13 57 81 78 145 45 26 -13 30 -20 24 -42 -3 -15
-15 -34 -25 -44 -28 -23 -25 -28 13 -28 l33 0 2 60 c2 54 -1 63 -28 90 -29 29
-68 50 -93 50 -7 -1 -25 -8 -42 -16z m30 -32 c-3 -3 -11 0 -18 7 -9 10 -8 11
6 5 10 -3 15 -9 12 -12z"/>
<path d="M3020 1677 c0 -35 2 -37 25 -31 23 6 25 4 25 -30 0 -36 -5 -40 -47
-39 -11 1 -30 -74 -21 -83 3 -2 21 2 40 10 19 8 65 23 101 32 73 18 102 39 71
51 -28 11 -146 84 -171 107 l-23 19 0 -36z m120 -66 c0 -5 -10 -11 -22 -15
-36 -9 -41 -7 -28 9 13 16 50 21 50 6z"/>
<path d="M253 1651 c5 -39 13 -47 32 -31 8 7 46 13 87 14 72 1 73 1 76 -25 4
-33 -10 -39 -105 -46 l-73 -6 0 -43 c0 -47 1 -49 28 -35 9 6 46 15 82 20 79
13 104 35 103 88 -1 28 -8 44 -29 61 -26 23 -33 24 -102 18 -51 -5 -78 -3 -88
5 -12 10 -14 6 -11 -20z"/>
<path d="M2881 1173 c-20 -32 -22 -41 -12 -72 11 -38 7 -51 -11 -33 -17 17
-31 15 -24 -4 3 -8 2 -12 -3 -9 -10 5 -81 -80 -81 -97 0 -5 8 -12 18 -16 41
-16 132 -88 132 -104 0 -10 4 -18 10 -18 9 0 110 137 110 149 0 3 -14 14 -30
23 -29 17 -30 17 -20 -2 8 -14 6 -29 -4 -55 -8 -19 -19 -35 -23 -35 -4 0 -21
11 -38 25 l-30 26 29 -3 c37 -4 46 17 11 26 -14 4 -25 11 -25 16 0 6 -4 10
-10 10 -5 0 -10 -9 -10 -20 0 -25 -8 -25 -40 -1 -24 19 -24 20 -5 41 11 12 27
19 37 17 19 -5 31 -1 127 45 46 22 57 24 59 12 5 -23 -28 -54 -57 -54 l-26 -1
29 -25 c28 -25 30 -25 42 -8 8 11 18 25 24 31 37 43 31 89 -15 119 -28 18 -55
12 -101 -22 -31 -24 -64 -32 -64 -15 0 13 50 51 66 51 23 0 16 16 -11 28 -14
7 -27 12 -28 12 -1 0 -13 -17 -26 -37z"/>
<path d="M570 1176 c0 -16 -133 -92 -157 -89 -17 1 -17 0 18 -68 35 -67 51
-79 105 -79 29 0 44 8 75 39 45 45 48 69 18 126 -31 58 -59 92 -59 71z m40
-95 c0 -37 -81 -88 -126 -79 -35 6 -22 24 44 60 78 43 82 44 82 19z"/>
<path d="M674 1014 c8 -16 -124 -116 -145 -111 -15 4 -16 1 -6 -22 6 -14 23
-40 37 -58 14 -17 32 -41 40 -54 15 -21 17 -21 49 -5 37 20 37 42 -1 38 -13
-2 -35 5 -47 15 l-22 18 30 29 c23 22 31 26 31 13 0 -8 -4 -19 -10 -22 -15 -9
-12 -25 4 -25 20 0 76 49 76 66 0 12 -4 12 -21 3 -13 -6 -25 -7 -30 -2 -6 6 5
16 26 26 33 16 35 16 45 -3 8 -14 7 -26 0 -41 -15 -28 -5 -35 25 -19 39 21 37
26 -55 130 -18 19 -29 30 -26 24z"/>
<path d="M2716 919 l-26 -30 25 -27 c14 -15 25 -30 25 -35 0 -4 14 -26 31 -47
24 -30 30 -45 25 -64 -8 -33 -4 -33 39 5 38 34 48 64 16 54 -25 -8 -143 100
-123 113 7 5 24 7 38 4 32 -6 31 17 -1 40 -23 17 -24 17 -49 -13z"/>
<path d="M2654 835 c-4 -8 -4 -25 -1 -36 5 -20 5 -20 -13 -4 -13 11 -20 13
-25 5 -9 -14 -6 -17 28 -25 24 -6 28 -5 27 11 -5 47 2 47 48 1 26 -26 54 -47
62 -47 8 0 -11 25 -42 55 -61 58 -75 65 -84 40z"/>
<path d="M810 743 c-41 -19 -88 -38 -104 -42 l-29 -6 25 -29 c15 -17 30 -26
37 -22 6 4 9 11 6 16 -10 16 13 20 39 9 30 -14 34 -34 9 -47 -21 -12 -12 -34
26 -61 23 -17 32 -19 35 -9 18 53 56 200 56 212 0 23 -15 19 -100 -21z m13
-54 c-4 -4 -15 -4 -23 1 -13 8 -12 11 5 24 18 13 20 13 23 -1 2 -8 0 -19 -5
-24z"/>
<path d="M2560 766 c0 -3 13 -11 30 -19 28 -15 29 -15 20 4 -9 16 -50 28 -50
15z"/>
<path d="M2460 681 c0 -5 9 -11 19 -14 14 -3 18 -1 14 9 -6 15 -33 19 -33 5z"/>
<path d="M944 661 c-75 -46 -59 -162 28 -207 41 -21 66 -17 99 16 l30 29 -23
12 c-13 7 -33 18 -45 26 -19 13 -21 13 -17 -4 2 -10 -3 -27 -11 -38 -12 -15
-19 -17 -33 -9 -25 16 -26 47 -2 94 27 52 62 70 98 49 19 -10 27 -24 29 -44 2
-50 3 -51 23 -26 24 28 26 51 5 51 -9 0 -18 7 -21 15 -9 22 -68 55 -100 55
-16 0 -43 -9 -60 -19z"/>
<path d="M2516 670 c18 -18 196 -62 208 -50 7 7 6 14 -3 23 -11 10 -13 10 -7
0 11 -20 -18 -15 -189 34 -15 4 -17 2 -9 -7z"/>
<path d="M2360 632 c-36 -21 -86 -46 -112 -56 -58 -21 -67 -33 -36 -45 26 -10
85 -131 73 -150 -10 -18 -23 -12 -27 11 -4 28 -28 36 -28 10 0 -12 -7 -28 -16
-36 -19 -19 -68 -22 -62 -4 3 7 -3 40 -13 72 -14 44 -15 63 -7 73 6 7 8 16 5
19 -9 9 -102 -21 -97 -31 3 -6 8 -9 12 -8 8 3 48 -119 48 -147 0 -18 -25 -34
-40 -25 -5 3 -34 41 -64 85 -31 44 -60 80 -65 80 -4 0 -18 -45 -30 -100 -12
-55 -26 -102 -32 -105 -5 -4 -9 -10 -9 -16 0 -12 41 -11 60 1 13 8 12 11 -3
23 -16 11 -16 15 -5 24 13 11 40 17 66 14 8 -1 10 -9 6 -26 -3 -14 -2 -25 3
-25 28 0 260 64 273 75 8 8 17 13 20 13 14 -3 80 25 90 38 10 11 9 14 -6 14
-14 0 -27 19 -48 70 -30 74 -29 100 3 100 26 0 95 -120 86 -150 -3 -11 -3 -20
2 -20 10 0 146 79 153 89 3 4 20 16 38 26 17 11 32 25 32 33 0 8 -12 3 -35
-14 -29 -22 -38 -24 -50 -14 -10 8 -15 9 -15 2 0 -17 -41 -52 -60 -52 -9 0
-22 12 -29 26 -11 25 -11 26 19 19 36 -8 37 -3 9 37 -19 26 -23 28 -31 14 -14
-24 -35 -19 -42 10 -9 34 32 71 49 44 10 -17 45 -12 39 5 -4 8 -15 15 -26 15
-10 0 -16 5 -13 10 12 19 -21 8 -85 -28z m-402 -270 c2 -7 -7 -12 -23 -12 -24
0 -26 2 -15 15 14 17 31 16 38 -3z"/>
<path d="M1157 590 c3 -9 -9 -45 -26 -78 -38 -75 -34 -114 13 -143 62 -38 106
-14 146 79 12 28 28 53 36 56 22 8 16 21 -15 33 -23 8 -28 8 -25 -2 8 -20 -36
-113 -63 -134 -26 -21 -63 -17 -63 6 0 26 62 143 76 143 28 0 13 15 -35 36
-44 20 -48 20 -44 4z"/>
<path d="M1365 448 c-27 -33 -61 -73 -77 -89 -27 -27 -28 -28 -9 -39 33 -17
51 -12 48 13 -2 19 3 22 36 24 29 1 37 -3 37 -16 0 -9 -5 -22 -12 -29 -15 -15
-11 -19 42 -31 25 -5 66 -14 92 -20 26 -6 55 -8 65 -4 24 8 63 44 63 58 0 13
-56 73 -90 96 -28 18 -19 39 16 39 13 0 24 4 24 9 0 16 -36 22 -64 12 -23 -9
-26 -16 -26 -55 0 -38 4 -48 29 -65 16 -12 36 -21 45 -21 20 0 21 -24 1 -40
-22 -18 -47 -8 -72 29 l-23 34 0 -32 c0 -33 -23 -41 -27 -10 -1 8 -7 53 -13
101 -7 50 -17 89 -24 91 -7 3 -34 -22 -61 -55z m21 -65 c-3 -3 -13 -3 -22 1
-15 6 -15 8 2 27 l19 21 3 -22 c2 -12 1 -24 -2 -27z"/>
<path d="M1623 455 c-8 -8 -9 -16 -3 -20 5 -3 6 -13 3 -23 -4 -12 -3 -14 5 -7
14 13 27 65 16 65 -5 -1 -15 -7 -21 -15z"/>
<path d="M1688 441 c-29 -26 -31 -30 -18 -47 14 -16 13 -17 -2 -11 -14 5 -18
1 -18 -19 0 -14 4 -23 10 -19 6 4 8 11 5 16 -4 5 -2 9 2 9 5 0 13 -10 18 -22
18 -39 35 -33 35 12 0 23 5 50 10 61 16 29 90 23 90 -7 0 -8 7 -14 15 -14 10
0 15 10 15 33 l0 33 -65 2 c-58 2 -68 -1 -97 -27z"/>
<path d="M1664 308 c-4 -6 4 -21 20 -35 39 -33 114 -33 146 2 32 34 20 41 -24
14 -29 -17 -41 -19 -65 -11 -16 6 -33 7 -37 4 -4 -4 -4 -2 0 5 3 6 2 14 -4 18
-5 3 -10 1 -10 -5 0 -6 -5 -8 -10 -5 -6 4 -8 11 -5 16 4 5 4 9 1 9 -3 0 -8 -5
-12 -12z"/>
</g>
</svg>
